# xmcd
#
# Track frame offsets:
#	150
#	10418
#	21992
#	32535
#	44265
#	56307
#	68854
#	82275
#	95002
#	107469
#	118419
#	130043
#	141614
#	152556
#	161081
#	171686
#	184185
#	197252
#	207984
#	218848
#	230925
#	245027
#
# Disc length: 3445
#
# Revision: 1
# Processed by: cddbd v1.5.1PL0 Copyright (c) Steve Scherf et al.
# Submitted via: EasyCDDAExtractor 4.5.0.2
# Normalized: r0:DSETVAR1,TDELIM( - )
#
DISCID=4b0d7316
DTITLE=Various Artist - Good Ol' Country
DYEAR=2001
DGENRE=Country
TTITLE0=Conway Twitty - It's Only Make Believe
TTITLE1=Sonny James - Young Love
TTITLE2=Jimmie Rodgers - Honeycomb
TTITLE3=Johnny Horton - The Battle Of New Orleans
TTITLE4=Tennessee Ernie Ford - Sixteen Tons
TTITLE5=Johnny Cash - I Walk The Line
TTITLE6=Hank Williams - Hey, Good Lookin'
TTITLE7=George Jones - White Lightning
TTITLE8=Hank Williams - Your Cheatin' Heart
TTITLE9=The Everly Brothers - Bye Bye Love
TTITLE10=Don Gibson - Oh Lonesome Me
TTITLE11=Hank Locklin - Send Me the Pillow You Dream On
TTITLE12=Please Help Me, I'm Falling - Hank Locklin
TTITLE13=Dang Me - Roger Miller
TTITLE14=The Wings Of A Dove - Ferlin Husky
TTITLE15=Crazy - Patsy Cline
TTITLE16=North To Alaska - Johnny Horton
TTITLE17=He'll Have To Go - Jim Reeves
TTITLE18=Walk On By - Leroy Van Dyke
TTITLE19=Ring Of Fire - Johnny Cash
TTITLE20=Saginaw, Michigan - Lefty Frizzell
TTITLE21=Wolverton Mountain - Claude King
EXTD=
EXTT0=
EXTT1=
EXTT2=
EXTT3=
EXTT4=
EXTT5=
EXTT6=
EXTT7=
EXTT8=
EXTT9=
EXTT10=
EXTT11=
EXTT12=
EXTT13=
EXTT14=
EXTT15=
EXTT16=
EXTT17=
EXTT18=
EXTT19=
EXTT20=
EXTT21=
PLAYORDER=
